PathFileType	4	(X/Y/Z)	/Users/niels/Desktop/University/Third Semester/Perception and Action/Exam/Gymnastics Motion Tracking/Code for Gym Tracking/Analyzed Data/Webcam_Backflip/id1_3_baseline_Sports2D/id1_3_baseline_Sports2D_px_person00.trc
DataRate	CameraRate	NumFrames	NumMarkers	Units	OrigDataRate	OrigDataStartFrame	OrigNumFrames
29.87551867219917	29.87551867219917	7	22	m	29.87551867219917	30	241
Frame#	Time	Hip			RHip			RKnee			RAnkle			RBigToe			RSmallToe			RHeel			LHip			LKnee			LAnkle			LBigToe			LSmallToe			LHeel			Neck			Head			Nose			RShoulder			RElbow			RWrist			LShoulder			LElbow			LWrist		
		X1	Y1	Z1	X2	Y2	Z2	X3	Y3	Z3	X4	Y4	Z4	X5	Y5	Z5	X6	Y6	Z6	X7	Y7	Z7	X8	Y8	Z8	X9	Y9	Z9	X10	Y10	Z10	X11	Y11	Z11	X12	Y12	Z12	X13	Y13	Z13	X14	Y14	Z14	X15	Y15	Z15	X16	Y16	Z16	X17	Y17	Z17	X18	Y18	Z18	X19	Y19	Z19	X20	Y20	Z20	X21	Y21	Z21	X22	Y22	Z22
30	1.0041666666666667	0.9411989219047197	-0.6085688741623512	0.0	0.9442924452064764	-0.6050622492603277	0.0	0.9621751233583569	-0.7066101725088216	0.0	0.9366688888051729	-0.8169057994150162	0.0	0.9833627443242259	-0.8310486794947495	0.0	0.9740614324289576	-0.8352562228316388	0.0	0.9256163844644397	-0.8311499723590031	0.0	0.9429522638468059	-0.60390516216031	0.0	0.9621284505387956	-0.7053097358166415	0.0	0.9375347839211716	-0.8134214797849197	0.0	0.984195783754026	-0.8304893504138467	0.0	0.9774397911606996	-0.8279320751281086	0.0	0.9259198211247331	-0.82676532531226	0.0	0.9852393225785048	-0.45004694161183806	0.0	1.0270330420685145	-0.3914118913036099	0.0	1.0288862742789258	-0.4319492127527529	0.0	0.9743770602476828	-0.4690942599777422	0.0	0.9521044549504113	-0.54081129411901	0.0	0.9437011557218247	-0.6126286951264219	0.0	0.9704238689804204	-0.4646373406493488	0.0	0.9477417410538409	-0.5390239888456988	0.0	0.9423761683539809	-0.6047196259065906	0.0
31	1.037638888888889	0.9420987470972937	-0.6110826040080481	0.0	0.944371031601713	-0.6073580573254322	0.0	0.9627321214678044	-0.7091888601064096	0.0	0.9364639392061185	-0.8198010868869889	0.0	0.9839011309924225	-0.8330578453363378	0.0	0.9744587954359862	-0.8373935354607511	0.0	0.9253686160034233	-0.8334160128751231	0.0	0.9444394738189084	-0.6061825324944558	0.0	0.9624924765547372	-0.7077126112992249	0.0	0.9378846070072203	-0.8161877780888138	0.0	0.9850021350039152	-0.833329011824883	0.0	0.9790298553688916	-0.8304844563525952	0.0	0.9256981124607709	-0.8290122992797851	0.0	0.988630231884719	-0.4541797037160179	0.0	1.0326469769154547	-0.3967010597103729	0.0	1.0334114654590472	-0.4365678443851366	0.0	0.9773475719511507	-0.4718650525458209	0.0	0.9407454475646548	-0.5365692089664428	0.0	0.9151183344000168	-0.6033824951921003	0.0	0.9742352197435393	-0.46775170198393107	0.0	0.9383860054637813	-0.5355621112074581	0.0	0.9171090143114655	-0.5970724315537344	0.0
32	1.0711111111111111	0.9426463506494558	-0.6126502858846018	0.0	0.9439917813894775	-0.608671850010677	0.0	0.9625218322129958	-0.7114475650024409	0.0	0.9362502280815104	-0.8223573663085574	0.0	0.9840765492471947	-0.8351022676286375	0.0	0.9746597820009446	-0.839592955671917	0.0	0.9251326221825065	-0.8356345708628242	0.0	0.9456961085228018	-0.6073852575245199	0.0	0.9619170651008138	-0.7096290762031692	0.0	0.9383403883387766	-0.818361121848276	0.0	0.9854427195716268	-0.8355854074771318	0.0	0.9804667612873104	-0.8324218764803785	0.0	0.925141934060878	-0.8309856439535303	0.0	0.9914116522832298	-0.45820935590253326	0.0	1.0381191003611512	-0.4012013672489762	0.0	1.037483216342919	-0.4405827505647765	0.0	0.9797380924151093	-0.47400575233454806	0.0	0.9312645214603161	-0.5287681582479371	0.0	0.8908065441838602	-0.5866478292085981	0.0	0.977716875058297	-0.47055421777279144	0.0	0.9304558232710802	-0.5285366772642978	0.0	0.8955986950436492	-0.5825021757314125	0.0
33	1.1045833333333333	0.942608285580308	-0.6130359609812079	0.0	0.943197599382761	-0.6088060523072	0.0	0.96155957872184	-0.7129751893795424	0.0	0.9361009085596068	-0.8240558072997598	0.0	0.9839223336350131	-0.8368323184467378	0.0	0.9746555206285025	-0.8415004485269206	0.0	0.924899252282518	-0.8373288067385024	0.0	0.9461844594988902	-0.6073678895819984	0.0	0.9605073221303368	-0.7106770577938702	0.0	0.9388448165417327	-0.8194231105964147	0.0	0.9854475160513112	-0.8369008585687452	0.0	0.981346506954456	-0.8333869535887967	0.0	0.924219430179485	-0.8322451172013337	0.0	0.993564201037236	-0.4616359499301451	0.0	1.043448860465107	-0.4046443523974588	0.0	1.0411069725059978	-0.4437307390644429	0.0	0.9816819458207093	-0.4751710159278743	0.0	0.924237326702555	-0.5180103597308838	0.0	0.8718911715825042	-0.564504670916021	0.0	0.9808099831417354	-0.472717337860713	0.0	0.9245320297896105	-0.518589650367125	0.0	0.8786044617386172	-0.5626278929109765	0.0
34	1.1380555555555556	0.9418793802978846	-0.6119214777418609	0.0	0.9419082221914324	-0.6074695039222313	0.0	0.9599743558712462	-0.7132694323580137	0.0	0.9360506047422242	-0.824367617797048	0.0	0.983423889360373	-0.8378313482219857	0.0	0.9743757485831048	-0.8426512749559824	0.0	0.924698572350427	-0.8378676463429812	0.0	0.9455748714578455	-0.6059095379647473	0.0	0.9585577308908158	-0.7104533872955786	0.0	0.9393225209126741	-0.8189468000969956	0.0	0.9849785300939733	-0.8370329559942463	0.0	0.9814474802853433	-0.8331106718972169	0.0	0.9230558745040776	-0.8322451887250795	0.0	0.995290381848351	-0.4639932669453132	0.0	1.0487056823384453	-0.4069365683421569	0.0	1.0444463426421755	-0.4458761881496054	0.0	0.9834384027446575	-0.47510824372256677	0.0	0.9198189266206777	-0.5051571816653098	0.0	0.8586119917063675	-0.5392879777607705	0.0	0.983659177470916	-0.47388678674378354	0.0	0.9210443200427925	-0.5066726352051598	0.0	0.8664071675109434	-0.5394204276727752	0.0
35	1.1715277777777777	0.9403972446298698	-0.609017323204731	0.0	0.9399661522285037	-0.6043919937707345	0.0	0.9580726339188494	-0.7118703387400768	0.0	0.9361406424147809	-0.8229035400800763	0.0	0.9826104923509046	-0.8377519583104267	0.0	0.9737727484832513	-0.8426333622792879	0.0	0.9246006999140138	-0.8367287599308959	0.0	0.9438557413634608	-0.602803697648271	0.0	0.9564870185609791	-0.7086438970326071	0.0	0.9397074710045298	-0.8167284759290003	0.0	0.984080203918975	-0.8359167311976926	0.0	0.9807940041744747	-0.83151359437008	0.0	0.9219026208582839	-0.8306219416265104	0.0	0.9969552458049259	-0.46492815202085963	0.0	1.0539338548893662	-0.40824333980051203	0.0	1.0476990282662615	-0.4470771427295055	0.0	0.9852313366124241	-0.4737426362271988	0.0	0.917857784557022	-0.49120820461504033	0.0	0.8505734097555341	-0.5132231522789972	0.0	0.9864713462090547	-0.4738105351695967	0.0	0.9201403608138938	-0.49382923387780786	0.0	0.858950203428524	-0.5149588261750392	0.0
36	1.205	0.9381284716924602	-0.6042694411743305	0.0	0.9372930451836485	-0.5995365196340792	0.0	0.9563701148700747	-0.7085093028997733	0.0	0.936422207857967	-0.8194641001019441	0.0	0.9816481639174109	-0.8363447268969653	0.0	0.9729280404721002	-0.8411498905071247	0.0	0.9246745437012845	-0.8336551590235122	0.0	0.9413310935329436	-0.5980488219456148	0.0	0.9547961617304187	-0.7051077397619914	0.0	0.9399812692945453	-0.8127376031185045	0.0	0.9829377135171818	-0.8336060977543308	0.0	0.9796137076550601	-0.8286766747047766	0.0	0.9210301746623795	-0.8273081766938086	0.0	0.9989208676768726	-0.4643072132126339	0.0	1.0591368320324708	-0.4089787843410586	0.0	1.0509831790743687	-0.4475879236064221	0.0	0.9870971573552901	-0.47118144094465414	0.0	0.9179861676643863	-0.4771727276184174	0.0	0.8469587595153559	-0.4882042580125306	0.0	0.9893924123041626	-0.47247259374101364	0.0	0.9215800081890128	-0.4810032038148267	0.0	0.8557942054432228	-0.491128243588861	0.0
